<?xml version="1.0" standalone="no"?>
<!DOCTYPE svg PUBLIC "-//W3C//DTD SVG 20010904//EN"
 "http://www.w3.org/TR/2001/REC-SVG-20010904/DTD/svg10.dtd">
<svg version="1.0" xmlns="http://www.w3.org/2000/svg"
 width="561.000000pt" height="561.000000pt" viewBox="0 0 561.000000 561.000000"
 preserveAspectRatio="xMidYMid meet">
<metadata>
Created by potrace 1.11, written by Peter Selinger 2001-2013
</metadata>
<g transform="translate(0.000000,561.000000) scale(0.100000,-0.100000)"
fill="#000000" stroke="none">
<path d="M1217 3773 c-15 -71 -29 -137 -31 -148 -4 -19 -54 -253 -61 -285 -12
-55 -35 -160 -39 -180 -2 -14 -23 -113 -46 -220 -22 -107 -57 -269 -76 -360
-61 -291 -86 -363 -145 -421 -53 -51 -110 -71 -205 -71 -68 -1 -114 16 -150
53 -28 30 -29 32 -29 142 0 110 7 184 24 260 8 33 7 37 -10 38 -10 0 -75 0
-144 0 -69 0 -156 0 -193 0 l-68 -1 -20 -97 c-19 -101 -26 -335 -12 -419 15
-87 49 -158 102 -209 94 -92 200 -125 422 -130 271 -5 464 63 610 217 123 130
186 267 239 518 15 69 44 208 66 310 22 102 41 194 43 205 3 11 16 73 30 137
14 64 27 127 30 140 5 29 79 375 111 525 14 62 25 115 25 118 0 3 -100 5 -223
5 l-222 0 -28 -127z"/>
<path d="M2135 3826 c-13 -57 -35 -154 -39 -176 -14 -71 -26 -131 -40 -190 -8
-36 -17 -76 -19 -90 -3 -14 -21 -101 -41 -195 -20 -93 -38 -179 -40 -190 -14
-69 -99 -471 -111 -525 -12 -57 -63 -293 -95 -445 -6 -27 -22 -101 -35 -164
-14 -63 -25 -117 -25 -122 0 -9 438 -11 444 -1 2 4 7 24 10 44 3 20 15 77 25
125 11 48 27 124 36 168 10 44 19 89 21 100 5 20 18 85 29 135 2 14 19 90 36
170 l31 145 465 -1 c335 -1 466 2 469 10 4 11 74 347 74 356 0 3 -209 5 -465
5 -461 0 -466 0 -461 20 2 11 26 120 52 243 l48 222 533 0 c293 0 533 2 533 4
0 6 71 340 76 357 4 14 -67 16 -751 16 l-755 0 -5 -21z"/>
<path d="M3803 3838 c42 -107 402 -981 412 -1001 13 -27 11 -30 -122 -190 -75
-89 -163 -193 -196 -232 -33 -38 -67 -79 -76 -90 -9 -11 -41 -50 -71 -85 -87
-102 -94 -111 -165 -195 -37 -44 -76 -91 -88 -105 -117 -137 -177 -210 -177
-214 0 -2 115 -4 255 -4 l256 0 67 82 c37 44 158 194 267 331 110 138 211 263
225 278 l25 28 21 -68 c12 -37 55 -160 94 -273 40 -113 85 -244 102 -292 l29
-87 270 0 c148 0 269 2 269 4 0 6 -39 104 -55 140 -8 17 -100 238 -205 493
l-192 463 25 32 c14 18 38 46 52 62 15 17 43 50 63 74 45 54 83 99 268 317 38
44 88 102 110 130 23 27 110 129 193 227 83 99 151 181 151 183 0 2 -116 4
-257 3 l-258 0 -255 -330 c-140 -182 -260 -335 -267 -340 -8 -7 -16 4 -27 38
-9 26 -60 179 -114 338 l-99 290 -267 3 c-213 2 -267 0 -263 -10z"/>
</g>
</svg>
